<?xml version="1.0" encoding="utf-8"?>
<!-- Generator: Adobe Illustrator 18.1.1, SVG Export Plug-In . SVG Version: 6.00 Build 0)  -->
<!DOCTYPE svg PUBLIC "-//W3C//DTD SVG 1.1//EN" "http://www.w3.org/Graphics/SVG/1.1/DTD/svg11.dtd">
<svg version="1.1" id="rh_x5F_12_x5F_app_x5F_RGB" xmlns="http://www.w3.org/2000/svg" xmlns:xlink="http://www.w3.org/1999/xlink"
	 x="0px" y="0px" viewBox="0 0 240 234.0004" enable-background="new 0 0 240 234.0004" xml:space="preserve">
<g>
	<radialGradient id="SVGID_1_" cx="97.6758" cy="81.286" r="143.4325" gradientUnits="userSpaceOnUse">
		<stop  offset="0" style="stop-color:#193333"/>
		<stop  offset="0.7519" style="stop-color:#051E1E"/>
	</radialGradient>
	<rect x="9.9649" y="9.9995" fill-rule="evenodd" clip-rule="evenodd" fill="url(#SVGID_1_)" width="220.001" height="214.0009"/>
</g>
<path fill-rule="evenodd" clip-rule="evenodd" fill="#00E6D2" d="M0,0v234.0004h240V0H0z M10,10h220v214.0004H10V10z"/>
<path fill-rule="evenodd" clip-rule="evenodd" fill="#00E6D2" d="M65,162.8383c0,0.8106-0.3193,0.6504-1.1298,0.6504H49.2901
	c-0.9707,0-1.2901-0.3203-1.2901-1.291v-104.98c0-0.7998,0.3194-1.4502,0.9698-1.4502c7.8906-0.3198,14.9502-0.48,26.8603-0.48
	c23.0205,0,36.8701,10.9507,36.8701,30.9097c0,16.4199-10.9502,25.6006-20.1308,28.9805
	c4.6709,8.0513,20.4512,37.2007,25.6006,46.8598c0.4795,0.8106,0.4795,1.4512-0.6397,1.4512h-16.75
	c-1.1201,0-1.6103,0.1602-1.9297-0.3301c-3.7011-6.4296-15.291-29.1503-22.7011-42.6699H65V162.8383z M74.8194,104.4882
	c11.75,0,20.1709-4.6699,20.1709-16.7402c0-11.7598-7.6104-17-19.5303-17c-4.1797,0-8.21,0.1602-10.46,0.3203v33.4199H74.8194z
	 M150,162.3579c0,0.8105-0.3193,1.1308-0.9697,1.1308h-15.9004c-0.8105,0-1.1299-0.4804-1.1299-1.1308V56.458
	c0-0.6504,0.1602-0.9703,1.1299-0.9703h15.9004c0.6504,0,0.9697,0.3199,0.9697,0.9703v32.1591
	c4.9903-3.8691,11.2002-6.2793,18.9307-6.2793c10.459,0,23.0693,5.3106,23.0693,28.8204v51.0395c0,0.9707-0.3193,1.291-1.1298,1.291
	h-15.7403c-0.8105,0-1.1299-0.4804-1.1299-1.291v-49.27c0-9.6602-3.75-14.9805-11.4794-14.9805
	c-4.9903,0-8.9805,1.6104-12.5206,4.8301V162.3579z"/>
</svg>
